<svg viewBox="0 0 80 80" xmlns="http://www.w3.org/2000/svg" id="Layer_1"><defs><style>.cls-1{fill:#231f20;stroke-width:0px;}</style></defs><path d="M63.16,21.73H9.7c-3.38,0-6.12,2.8-6.12,6.25v24.04c0,3.45,2.74,6.25,6.12,6.25h53.45c3.38,0,6.12-2.8,6.12-6.25v-24.04c0-3.45-2.74-6.25-6.12-6.25ZM67.64,52.02c0,2.54-2.01,4.61-4.48,4.61H9.7c-2.47,0-4.48-2.07-4.48-4.61v-24.04c0-2.54,2.01-4.61,4.48-4.61h53.45c2.47,0,4.48,2.07,4.48,4.61v24.04Z" class="cls-1"></path><path d="M73.01,32.79h-1.81v14.42h1.81c1.88,0,3.41-1.56,3.41-3.49v-7.44c0-1.93-1.53-3.49-3.41-3.49Z" class="cls-1"></path><path d="M28.42,41.37l4.63-.89c1.84-.36,4.35-1.36,4.35-3.85,0-3.66-3.94-4.42-8.15-4.42-3.24,0-7.5.6-7.87,5.12h5.53c.15-1.7,1.57-1.83,2.97-1.83,1.2,0,2.1.3,2.1,1.06,0,.55-.33.89-1,1.02l-3.78.83c-3.06.72-6.17,2.19-6.27,7.25h16.18v-3.29h-10.71c.31-.51.9-.79,2.01-1Z" class="cls-1"></path><path d="M46.34,32.21c-5.38,0-8.17,2.48-8.22,6.93,0,4.38,2.78,6.86,8.17,6.86s8.2-2.47,8.2-6.86c.06-4.46-2.75-6.93-8.15-6.93ZM46.34,42.6c-2.25,0-3.19-1.78-3.24-3.46,0-1.76.94-3.53,3.19-3.53s3.23,1.78,3.23,3.53c.06,1.68-.87,3.46-3.17,3.46Z" class="cls-1"></path><path d="M61.14,38.38c-1.52,0-2.45.62-2.75,1.08h-.03v-3.37h-3.16v9.57h3.16v-3.26c0-1.18.62-1.68,1.47-1.68.76,0,1.21.39,1.21,1.28v3.67h3.16v-4.51c0-1.97-1.31-2.77-3.06-2.77Z" class="cls-1"></path><polygon points="12.86 30.71 8.83 41.09 12.92 41.09 9.46 49.28 19.95 37.38 15.52 37.32 20.38 30.71 12.86 30.71" class="cls-1"></polygon></svg>