<svg viewBox="0 0 80 80" xmlns="http://www.w3.org/2000/svg" id="Layer_1"><defs><style>.cls-1{fill:#231f20;stroke-width:0px;}</style></defs><path d="M30.63,46.96c0-.99-.46-1.37-1.72-1.37h-3.19v2.69h3.19c1.26,0,1.72-.4,1.72-1.33Z" class="cls-1"></path><path d="M61.44,34.62h-5.13c-6.26-5.96-14.99-18.71-14.99-28.63,0-.72-.59-1.31-1.31-1.31s-1.31.59-1.31,1.31c0,9.92-8.74,22.67-15,28.63h-5.13c-7.88,0-14.29,6.48-14.29,14.44s6.41,14.44,14.29,14.44h1.59c3.46,7.19,11.23,11.82,19.85,11.82s16.38-4.64,19.84-11.82h1.59c7.88,0,14.29-6.48,14.29-14.44s-6.41-14.44-14.29-14.44ZM19.01,55.4h-4.94v-12.82h4.94v12.82ZM40,13.65c2.56,8.16,8.23,16.2,12.63,20.96h-25.26c4.4-4.76,10.07-12.8,12.64-20.96ZM51.62,55.4h-6.1l-2.31-3.3-2.31,3.3h-6.1l5.63-6.7-4.89-6.12h5.8l1.88,2.8,1.88-2.8h5.8l-4.89,6.12,5.63,6.7ZM20.78,42.58h10.2c3.51,0,4.8,1.62,4.8,4.47,0,2.46-1.26,4.36-4.77,4.36h-5.29v3.99h-4.94v-12.82ZM40,72.7c-7.03,0-13.6-3.59-16.88-9.2h33.76c-3.29,5.6-9.85,9.2-16.88,9.2ZM66.59,53.5h-2.26v1.9h-4.38v-1.9h-8.94v-3.14l7.03-7.42h6.29v7.54h2.26v3.02Z" class="cls-1"></path><polygon points="59.95 50.48 59.95 45.96 55.5 50.48 59.95 50.48" class="cls-1"></polygon></svg>