<svg viewBox="0 0 80 80" xmlns="http://www.w3.org/2000/svg" id="Layer_1"><defs><style>.cls-1{fill:#231f20;stroke-width:0px;}</style></defs><path d="M11.23,20.12h12.71c.51,4.55,4.32,8.11,9.01,8.11s8.51-3.56,9.01-8.11h26.8c.55,0,1-.45,1-1s-.45-1-1-1h-26.8c-.51-4.55-4.32-8.11-9.01-8.11s-8.51,3.56-9.01,8.11h-12.71c-.55,0-1,.45-1,1s.45,1,1,1ZM32.96,11.98c3.94,0,7.13,3.19,7.13,7.13s-3.19,7.13-7.13,7.13-7.13-3.19-7.13-7.13,3.19-7.13,7.13-7.13ZM68.77,59.88h-31.89c-.51-4.55-4.32-8.11-9.01-8.11s-8.51,3.56-9.01,8.11h-7.62c-.55,0-1,.45-1,1s.45,1,1,1h7.62c.51,4.55,4.32,8.11,9.01,8.11s8.51-3.56,9.01-8.11h31.89c.55,0,1-.45,1-1s-.45-1-1-1ZM27.87,68.01c-3.94,0-7.13-3.19-7.13-7.13s3.19-7.13,7.13-7.13,7.13,3.19,7.13,7.13-3.19,7.13-7.13,7.13ZM68.77,39h-7.51c-.51-4.55-4.32-8.11-9.01-8.11s-8.51,3.56-9.01,8.11H11.23c-.55,0-1,.45-1,1s.45,1,1,1h32c.51,4.55,4.32,8.11,9.01,8.11s8.51-3.56,9.01-8.11h7.51c.55,0,1-.45,1-1s-.45-1-1-1ZM52.25,47.13c-3.94,0-7.13-3.19-7.13-7.13s3.19-7.13,7.13-7.13,7.13,3.19,7.13,7.13-3.19,7.13-7.13,7.13Z" class="cls-1"></path></svg>