<svg viewBox="0 0 80 80" xmlns="http://www.w3.org/2000/svg" id="Layer_1"><defs><style>.cls-1{fill:#231f20;stroke-width:0px;}</style></defs><path d="M31.41,32.63v6.13h-2.45v-6.13h2.45ZM38.77,47.96h2.45v-24.53h-2.45v24.53ZM24.57,44.67c-.57-1.25-1.98-1.88-3.26-1.46l-.09.03-2.03.72c-.54.18-.81.75-.6,1.28l8.44,23.6c.18.51.75.78,1.29.6l2.12-.78c1.26-.48,1.95-1.85,1.59-3.16-1.98-7.01-4.46-13.93-7.45-20.82ZM33.87,43.3h2.45v-15.21h-2.45v15.21ZM26.51,34.1h-2.45v3.19h2.45v-3.19ZM21.6,34.47h-2.45v2.45h2.45v-2.45ZM48.59,32.63v6.13h2.45v-6.13h-2.45ZM60.85,34.47h-2.45v2.45h2.45v-2.45ZM43.68,43.3h2.45v-15.21h-2.45v15.21ZM68.32,48.64c.81-2.89,1.68-6.41,1.68-9.84,0-2.89-.42-5.67-1.17-8.29-.51-1.79-1.2-3.49-2.01-5.13-4.94-9.79-15.08-16.5-26.81-16.5s-21.91,6.71-26.84,16.5c-.81,1.64-1.5,3.34-2.01,5.13-.78,2.69-1.17,5.49-1.17,8.29,0,3.43.87,6.95,1.68,9.84l.03.12s-1.38,1.28-.33,4.53c1.2,3.64,3.47,10.29,5.09,13.93.57,1.25,1.92,2.57,2.96,2.21,0,0,.57.81.81,1.07,1.08,1.07,4.28.57,5.66,0l-.93-2.63-.84-2.3-.09-.3-.3-.84-2.12-5.91-1.98-5.52-.54-1.55-.42-1.16-.99-2.77-.42-1.13-.54-1.52-2.39-2.3c-1.35-3.04-1.17-7.37-.24-11.04.48-1.94,1.17-3.67,1.95-4.92l.03-.06c5-7.94,13.86-13.22,23.94-13.22s18.91,5.28,23.91,13.22l.06.06c.75,1.25,1.44,2.98,1.95,4.92.9,3.67,1.11,8-.27,11.04l-2.39,2.3-.54,1.52-.42,1.13-.99,2.77-.42,1.16-.54,1.55-1.98,5.52-2.12,5.91-.3.84-.09.3-.84,2.3-.93,2.63c1.32.57,4.67,1.01,5.66,0,.27-.27.54-.63.81-1.07,1.05.36,2.42-.95,2.96-2.21,1.62-3.64,3.92-10.29,5.09-13.93,1.05-3.19-.3-4.5-.33-4.53l.03-.12ZM60.81,44.07l-2.03-.75-.09-.03c-1.29-.42-2.69.21-3.23,1.46-3.02,6.89-5.51,13.84-7.48,20.82-.36,1.31.33,2.71,1.59,3.19l2.12.78c.54.18,1.11-.09,1.29-.63l8.47-23.6c.18-.51-.09-1.07-.63-1.25ZM55.95,34.1h-2.45v3.19h2.45v-3.19Z" class="cls-1"/></svg>