<svg viewBox="0 0 80 80" xmlns="http://www.w3.org/2000/svg" id="Layer_1"><defs><style>.cls-1{fill:#231f20;stroke-width:0px;}</style></defs><path d="M27.28,34.63l-5.72-3.3,11.97-20.73c1.28-2.21,3.57-3.54,6.12-3.54s4.85,1.32,6.12,3.54l8.23,14.26,2.85-1.64v13.17l-11.41-6.59,2.85-1.64-8.23-14.26c-.04-.05-.14-.23-.41-.23s-.37.18-.4.23l-11.97,20.74ZM12.15,61.45l7.85-13.56,2.85,1.65v-13.17l-11.4,6.58,2.84,1.65-8.32,14.42c-1.28,2.21-1.28,4.86,0,7.08,1.27,2.21,3.57,3.53,6.12,3.53h23.97v-6.6H13.06c-.81,0-1.31-.88-.91-1.58ZM74.04,59.08l-11.95-20.74-5.72,3.3,11.95,20.74c.03.06.13.24,0,.47-.14.23-.34.23-.41.23h-16.46s0-3.3,0-3.3l-11.41,6.57,11.4,6.6v-3.28h16.46c2.56.01,4.85-1.3,6.13-3.51,1.28-2.21,1.28-4.86,0-7.08ZM40.05,57.34c-.61,0,0,1.46-1.05,1.46s.13-1.33-1.41-1.33-2.1-.48-2.52-1.52c-.61-1.52-2.17-3.31-3.38-4.25-1.23-.95-2.09-1.97-2.21-3.75-.09-1.3.86-1.33.86-.32,0,1.4.98,2.09,1.91,2.54.92.44,2.21-.63,3.14-2.29-.55-1.59-2.59-4.37-4.31-4.37-1.35,0,0,2.22-1.11,2.22-.73,0-.98-1.27-.73-2.41.26-1.24.86-1.84,1.29-2.6.39-.69,1.23-9.57,10.21-9.57,10.52,0,4.8,6.08,5.66,8.44.86,2.34,4.37,2.15,4.49,7.1.12,5.01-7.57,9.07-8.12,9.45-.55.38.24,2.6-1.54,2.6-1.18,0-.55-1.39-1.17-1.39ZM40.11,46.75c0,2.28,1.79,4.12,4,4.12s4-1.84,4-4.12-1.8-4.12-4-4.12-4,1.85-4,4.12ZM40.05,53.53c-.07-.51-3.69-4.44-3.69-4.44,0,0-.55.77-1.11,2.47-.56,1.72.13,2.09.8,1.84.68-.26,2.4-.19,2.83.32.43.51,1.23.32,1.17-.19Z" class="cls-1"></path></svg>