<svg viewBox="0 0 80 80" xmlns="http://www.w3.org/2000/svg" id="Layer_1"><defs><style>.cls-1{fill:#231f20;stroke-width:0px;}</style></defs><path d="M50.71,31.23h0c-1.4-3.84,7.91-13.76-9.22-13.76-14.64,0-16,14.48-16.64,15.6-.96,1.27-1.67,2.71-2.1,4.24-.41,1.86,0,3.93,1.2,3.93,1.81,0-.4-3.62,1.81-3.62,2.8,0,6.11,4.54,7.02,7.13-1.51,2.7-3.61,4.45-5.11,3.73-1.79-.61-3.03-2.25-3.11-4.15,0-1.66-1.54-1.6-1.4.52.17,2.49,1.51,4.75,3.61,6.1,2.34,1.85,4.23,4.22,5.51,6.92.69,1.69,1.6,2.48,4.11,2.48s.6,2.17,2.3,2.17.71-2.38,1.71-2.38-.01,2.27,1.91,2.27c2.89,0,1.6-3.62,2.5-4.24.9-.62,13.42-7.23,13.23-15.39-.2-8.05-5.92-7.74-7.32-11.56ZM38.48,54.27h0c-1.4-.81-3.08-.99-4.62-.52-1.1.41-2.21-.2-1.3-3,.41-1.42,1.02-2.78,1.81-4.03,2.18,2.26,4.19,4.68,6.02,7.23.1.83-1.21,1.14-1.91.31ZM47,49.62s0,0,0,0c-3.71.11-6.8-2.81-6.91-6.52-.11-3.71,2.81-6.8,6.52-6.91,3.71-.11,6.8,2.81,6.91,6.52,0,.07,0,.13,0,.2.06,3.65-2.86,6.66-6.51,6.72Z" class="cls-1"></path><path d="M70.63,30.08s-.01-.01-.02-.02h0l-1.85,1.85c5.49,5.48,5.5,14.36.02,19.85,0,0-.01.01-.02.02l1.85,1.85c6.51-6.5,6.52-17.04.02-23.55Z" class="cls-1"></path><path d="M66.28,34.41s0,0-.01-.01h0s-1.85,1.86-1.85,1.86c3.09,3.08,3.09,8.08,0,11.17h0s1.85,1.86,1.85,1.86c4.11-4.1,4.12-10.76.01-14.87Z" class="cls-1"></path><path d="M11.22,31.93s.01-.01.02-.02l-1.85-1.85c-6.51,6.5-6.52,17.05-.02,23.56,0,0,.01.01.02.02l1.85-1.85c-5.49-5.48-5.5-14.36-.02-19.85Z" class="cls-1"></path><path d="M15.59,36.26l-1.85-1.85c-4.11,4.1-4.12,10.76-.02,14.87,0,0,.01.01.02.02l1.85-1.85c-3.09-3.08-3.09-8.08-.01-11.17,0,0,0,0,.01-.01Z" class="cls-1"></path></svg>